<?xml version="1.0" standalone="no"?>
<!DOCTYPE svg PUBLIC "-//W3C//DTD SVG 20010904//EN"
 "http://www.w3.org/TR/2001/REC-SVG-20010904/DTD/svg10.dtd">
<svg version="1.0" xmlns="http://www.w3.org/2000/svg"
 width="1024.000000pt" height="734.000000pt" viewBox="0 0 1024.000000 734.000000"
 preserveAspectRatio="xMidYMid meet">

<g transform="translate(0.000000,734.000000) scale(0.100000,-0.100000)"
fill="#000000" stroke="none">
<path d="M3433 6963 c-125 -70 -279 -419 -397 -903 -114 -468 -175 -944 -207
-1620 -13 -265 -7 -1136 10 -1429 l10 -163 -26 -47 c-31 -55 -27 -87 11 -77
l23 6 7 -148 c4 -81 13 -232 21 -337 l14 -190 -27 -22 c-129 -108 -403 -303
-426 -303 -2 0 -22 31 -45 69 -56 95 -96 128 -166 136 -52 7 -60 5 -98 -22
-60 -41 -86 -111 -86 -223 -1 -100 17 -149 72 -197 34 -30 105 -53 161 -53 20
0 31 -17 81 -132 204 -467 393 -791 560 -961 135 -137 278 -122 352 38 l28 60
0 265 c-1 292 -8 390 -66 905 -21 193 -39 364 -39 380 0 25 13 40 71 90 39 33
83 71 98 84 14 14 98 90 186 170 88 80 210 193 270 251 61 58 144 137 185 175
97 91 100 94 426 415 154 151 294 288 311 304 l31 28 37 -118 c83 -266 271
-540 475 -692 41 -31 77 -60 78 -64 2 -4 8 -8 14 -8 5 0 24 -11 42 -25 18 -14
35 -25 38 -25 3 0 22 -7 42 -15 20 -8 39 -16 43 -17 5 -1 42 -15 83 -30 120
-45 242 -68 396 -75 208 -9 380 16 500 73 85 40 111 115 57 166 -37 35 -74 43
-115 25 -107 -48 -279 -66 -452 -47 -278 29 -484 126 -663 312 -64 67 -168
227 -217 336 -45 101 -93 279 -102 379 l-7 72 584 584 c554 553 1091 1101
1210 1232 30 32 79 86 110 120 74 79 168 184 199 221 24 28 177 218 192 239 4
6 21 26 38 46 16 20 30 41 30 47 0 6 3 12 8 14 7 3 55 73 78 113 6 11 27 47
45 80 68 118 86 231 53 328 -18 52 -87 123 -131 133 -15 3 -41 9 -57 13 -47
11 -180 -6 -263 -34 -162 -55 -489 -251 -773 -464 -470 -353 -893 -787 -1142
-1171 -108 -166 -209 -356 -272 -508 -89 -215 -186 -586 -186 -715 0 -29 -3
-76 -7 -105 l-6 -52 -543 -563 c-596 -617 -1013 -1026 -1024 -1005 -15 27 -77
799 -66 820 3 7 22 40 42 73 59 101 205 405 253 525 125 317 204 579 275 910
98 460 136 803 136 1224 0 614 -95 1025 -253 1097 -53 23 -84 24 -124 2z m106
-270 c25 -73 65 -271 92 -448 26 -172 37 -628 20 -851 -57 -764 -242 -1501
-509 -2029 -43 -85 -51 -96 -56 -75 -3 14 -12 167 -21 340 -17 360 -20 1072
-5 1320 23 370 87 836 155 1130 69 298 174 594 241 675 l38 47 12 -24 c7 -13
22 -51 33 -85z m3625 -155 c-49 -84 -493 -610 -788 -933 -328 -360 -1280
-1358 -1284 -1346 -4 12 81 265 113 336 44 97 93 196 126 255 17 30 41 73 54
95 30 55 143 223 174 261 14 18 35 44 46 58 140 184 192 243 390 441 83 83
178 173 210 202 33 28 71 62 85 74 136 120 430 333 585 424 58 35 276 144 288
144 5 1 5 -5 1 -11z m-4230 -4893 c4 -55 25 -295 47 -534 22 -238 38 -435 36
-437 -6 -7 -93 119 -166 241 -77 128 -311 588 -311 611 0 8 19 26 43 40 92 58
215 140 272 182 59 43 60 43 66 20 3 -13 9 -68 13 -123z"/>
</g>
</svg>
