<svg xmlns="http://www.w3.org/2000/svg" width="734" height="734" viewBox="0 0 734 734" version="1.1"><path d="" stroke="none" fill="#f08484" fill-rule="evenodd"/><path d="M 262.019 39.716 C 249.878 50.108, 236.475 81.884, 225.569 126.134 C 217.687 158.111, 210.686 200.666, 208.481 230 C 208.171 234.125, 207.732 238.400, 207.507 239.500 C 207.281 240.600, 206.338 253.875, 205.412 269 C 203.340 302.812, 203.094 377.297, 204.911 420.179 L 206.169 449.857 203.585 453.661 C 200.638 457.997, 200.349 460.215, 202.500 462 C 203.639 462.946, 204.335 462.967, 205.391 462.090 C 206.931 460.812, 206.625 457.830, 209.637 503.431 L 211.283 528.362 208.392 530.755 C 195.008 541.831, 169.251 560, 166.933 560 C 166.570 560, 163.988 556.409, 161.195 552.021 C 155.083 542.418, 151.647 540.009, 144.054 540.004 C 133.645 539.997, 127.264 547.900, 126.234 562.075 C 125.042 578.474, 134.798 590.652, 149 590.492 L 152.500 590.453 158.619 604.476 C 176.155 644.668, 191.746 672.691, 207.054 691.527 C 218.003 705.001, 224.352 709.406, 232.709 709.327 C 237.172 709.285, 238.641 708.727, 242.966 705.428 C 252.857 697.885, 255.012 685.662, 253.088 648 C 252.400 634.525, 251.630 621.475, 251.378 619 C 249.512 600.731, 246.623 574.012, 244.457 555.013 L 241.894 532.526 247.171 528.013 C 253.232 522.828, 296.228 483.791, 300.037 480.015 C 301.432 478.632, 310.621 469.850, 320.456 460.500 C 339.301 442.585, 392.570 390.451, 396.856 385.727 L 399.371 382.954 403.513 395.727 C 415.762 433.502, 445.275 467.477, 476.760 480.049 C 489.042 484.953, 506.538 489.545, 515 490.085 C 537.996 491.553, 561.124 489.118, 572.358 484.047 C 579.006 481.045, 581.274 479.039, 582.924 474.700 C 584.918 469.456, 579.855 462, 574.299 462 C 573.058 462, 568.545 463.185, 564.271 464.633 C 557.818 466.819, 554.125 467.349, 542.500 467.761 C 520.668 468.534, 506.526 466.065, 488 458.247 C 456.741 445.055, 429.508 404.652, 426.164 366.504 L 425.432 358.165 495.466 287.818 C 589.382 193.482, 613.798 168.150, 635 143.048 C 637.475 140.118, 640.895 136.096, 642.600 134.110 C 648.383 127.377, 666.627 102.532, 670.365 96.300 C 676.638 85.842, 680.808 75.821, 681.525 69.479 C 682.902 57.306, 676.983 46.089, 667.186 42.308 C 659.717 39.426, 646.819 40.070, 635.197 43.906 C 607.772 52.956, 550.952 91.288, 513.458 126.033 C 456.342 178.962, 420.924 231.736, 405.096 287.500 C 399.220 308.199, 396.940 320.100, 396.290 333.459 L 395.708 345.418 335.024 407.968 C 280.611 464.053, 240.501 503.834, 239.437 502.770 C 238.765 502.099, 237.044 484.467, 234.578 453 L 232.188 422.500 238.550 410.969 C 271.860 350.588, 293.134 278.103, 301.496 196.500 C 306.723 145.484, 302.883 87.001, 292.395 57.889 C 286.918 42.687, 280.297 36, 270.720 36 C 267.134 36, 265.589 36.660, 262.019 39.716 M 268.388 57.805 C 258.870 69.950, 244.943 115.094, 238.004 156.295 C 227.506 218.624, 224.652 293.067, 229.485 378.500 C 230.294 392.800, 230.988 404.950, 231.028 405.500 C 231.138 407.032, 238.698 391.860, 244.232 379 C 265.687 329.141, 278.779 274.026, 286.159 202.500 C 288.040 184.274, 287.701 131.472, 285.608 116.500 C 283.326 100.183, 280.268 83.130, 277.896 73.500 C 275.754 64.807, 272.147 54.967, 271.134 55.055 C 270.785 55.086, 269.550 56.323, 268.388 57.805 M 621.500 87.816 C 613.250 92.091, 602.927 98.043, 598.559 101.044 C 581.618 112.684, 579.673 114.058, 574.555 118 C 572.770 119.375, 569.805 121.625, 567.967 123 C 563.429 126.395, 548.419 138.596, 543.500 142.890 C 541.300 144.810, 530.928 154.957, 520.451 165.440 C 478.072 207.845, 450.724 249.283, 436.060 293.313 C 433.713 300.360, 431.990 306.323, 432.232 306.565 C 432.912 307.245, 533.383 201.578, 561.606 170.500 C 588.241 141.171, 624.099 98.897, 637.309 81.250 C 639.002 78.988, 636.670 79.957, 621.500 87.816 M 212.677 555.766 C 211.955 556.888, 207.682 559.986, 193.428 569.719 C 187.966 573.450, 186.322 574.475, 180.750 577.629 C 178.137 579.108, 176 580.591, 176 580.925 C 176 582.295, 198.126 626.231, 203.483 635.500 C 213.526 652.875, 222.459 665.749, 222.805 663.344 C 223.058 661.582, 221.011 637.547, 214.215 562.500 C 213.787 557.769, 213.158 555.017, 212.677 555.766" stroke="none" fill="#ec8484" fill-rule="evenodd"/></svg>